<svg xmlns="http://www.w3.org/2000/svg" width="29.239" height="28.434" viewBox="0 0 29.239 28.434">
  <g id="Icon_ionic-ios-cart" data-name="Icon ionic-ios-cart" transform="translate(-3.382 -4.493)">
    <path id="Path_118" data-name="Path 118" d="M14.431,30.526A2.435,2.435,0,1,1,12,28.125a2.418,2.418,0,0,1,2.434,2.4Z" fill="#003"/>
    <path id="Path_119" data-name="Path 119" d="M28.723,29.813a1.687,1.687,0,1,1-1.687-1.688,1.687,1.687,0,0,1,1.687,1.688Z" fill="#003"/>
    <path id="Path_120" data-name="Path 120" d="M32.611,9.3a.413.413,0,0,0-.366-.3L9.345,6.785a.7.7,0,0,1-.527-.33,7.16,7.16,0,0,0-.858-1.308c-.541-.661-1.561-.64-3.431-.654a1.024,1.024,0,0,0-1.146.991,1,1,0,0,0,1.1.991,9.342,9.342,0,0,1,1.828.134c.33.1.6.64.7,1.111a.026.026,0,0,0,.007.021c.014.084.141.717.141.724L9.963,23.344a5.468,5.468,0,0,0,1.02,2.51A2.806,2.806,0,0,0,13.3,26.993H29.932a1,1,0,0,0,1.013-.942.98.98,0,0,0-.984-1.027H13.282a.817.817,0,0,1-.584-.2A3.155,3.155,0,0,1,11.89,23l-.3-1.666c0-.021,5.257-3.34,5.278-3.347H31.141a.411.411,0,0,0,.345-.366l1.125-8.142A.4.4,0,0,0,32.611,9.3Z" fill="#003"/>
  </g>
</svg>
